<svg xmlns="http://www.w3.org/2000/svg" width="1024" height="534" viewBox="0 0 1024 534">
  <defs>
    <style>
      .a {
        fill: #3d3d3d;
      }
    </style>
  </defs>
  <title>DJ-Icons-Preview</title>
  <g>
    <polygon class="a" points="469.93 217.35 469.96 221.62 473.19 223.34 480.74 223.33 484.39 221.61 484.36 217.31 469.93 217.35"/>
    <polygon class="a" points="390.89 217.35 390.92 221.62 394.15 223.34 401.7 223.33 405.34 221.61 405.31 217.31 390.89 217.35"/>
    <polygon class="a" points="374.64 217.35 374.66 221.62 377.9 223.34 385.45 223.33 389.09 221.61 389.06 217.31 374.64 217.35"/>
    <polygon class="a" points="356.98 217.35 357 221.62 360.24 223.34 367.79 223.33 371.43 221.61 371.39 217.31 356.98 217.35"/>
    <polygon class="a" points="340.56 217.35 340.58 221.62 343.82 223.34 351.37 223.33 355.01 221.61 354.98 217.31 340.56 217.35"/>
    <polygon class="a" points="405.34 60.4 401.7 58.67 394.15 58.66 390.92 60.38 390.89 64.66 405.31 64.7 405.34 60.4"/>
    <polygon class="a" points="389.09 60.4 385.45 58.67 377.9 58.66 374.66 60.38 374.64 64.66 389.06 64.7 389.09 60.4"/>
    <polygon class="a" points="371.43 60.4 367.79 58.67 360.24 58.66 357 60.38 356.98 64.66 371.39 64.7 371.43 60.4"/>
    <polygon class="a" points="355.01 60.4 351.37 58.67 343.82 58.66 340.58 60.38 340.56 64.66 354.98 64.7 355.01 60.4"/>
    <polygon class="a" points="448.03 64.6 448.03 64.6 448.03 58.77 448.03 58.77 448.03 58.76 437.46 58.76 437.46 64.6 437.46 64.6 448.03 64.6"/>
    <path class="a" d="M495.72,66.33H330.46V214.91H495.72Z"/>
  </g>
  <path class="a" d="M545.86,310.37H280.31c-8.94,0-11.68,6.25-9.9,6.25h35.32a9.94,9.94,0,0,0-7,9.49V465.69a9.94,9.94,0,0,0,9.94,9.94h87.6a3.41,3.41,0,0,1,3.36-2.87h26.89a3.41,3.41,0,0,1,3.36,2.87h87.6a9.94,9.94,0,0,0,9.94-9.94V326.11a9.94,9.94,0,0,0-7-9.49h35.32C557.55,316.62,554.81,310.37,545.86,310.37ZM450,467.1a2.76,2.76,0,0,1-2.76,2.76H379a2.76,2.76,0,0,1-2.76-2.76V418.63a2.76,2.76,0,0,1,2.76-2.76H447.2a2.76,2.76,0,0,1,2.76,2.76Zm64.29-61.89a3.81,3.81,0,0,1-3.81,3.81H315.73a3.81,3.81,0,0,1-3.81-3.81V330.61a3.81,3.81,0,0,1,3.81-3.81H510.45a3.81,3.81,0,0,1,3.81,3.81Zm-18.73-84.75a2.59,2.59,0,0,1-2.59,2.59H333.25a2.59,2.59,0,0,1-2.59-2.59v-3.85H495.52Z"/>
  <g>
    <path class="a" d="M181.32,130.78l-4.07-.57a3,3,0,0,1-2-1.72A65.1,65.1,0,0,0,140,89.31,2.89,2.89,0,0,1,138,87.05c-.19-2-3.4-24-3.65-26a3.13,3.13,0,0,0-3.12-2.71H95.71a3.14,3.14,0,0,0-3.12,2.71c-.42,2-3.46,23.95-3.65,26-.14,1.41-1.58,2-2.39,2.4A64.5,64.5,0,0,0,51.73,128.4a2.68,2.68,0,0,1-2.3,1.83c-1.57.21-3.49.49-3.84.54a3.11,3.11,0,0,0-2.71,3.12c0,.87,0,28.31,0,29.18a3.19,3.19,0,0,0,2.71,3.12l4.46.63a1.74,1.74,0,0,1,1.54,1.3,66,66,0,0,0,34.7,39.31,2.64,2.64,0,0,1,1.54,2c.23,1.43,1.48,10.32,1.62,11.5a3.07,3.07,0,0,0,3.12,2.71H134c1.51,0,3.34-1.17,3.43-2.71.06-1.19,1.39-10.07,1.62-11.5a2.45,2.45,0,0,1,1.44-1.94,65.67,65.67,0,0,0,34.81-39.41c.25-.8.87-1,1.52-1.24,1-.33,3.6-.41,4.46-.63,1.72-.44,2.71-1.41,2.71-3.12V133.9A3.07,3.07,0,0,0,181.32,130.78Zm-67.87,69.62a51.91,51.91,0,0,1-8.79-103.07,19,19,0,1,1,17.59,0,51.91,51.91,0,0,1-8.79,103.07Z"/>
    <path class="a" d="M113.15,73.48h.28a7.07,7.07,0,0,1,2.67.53l1.19-.68,1.6,2.77A6.51,6.51,0,0,1,120,77.94l1.67,2.88-1.28.74a7,7,0,0,1-1.11,2.81l2.37,5.29-.17.1,1.17,2a14.57,14.57,0,0,0-12.71-25.47l3.91,6.77Z"/>
    <path class="a" d="M118.66,94.07l-1.17-2-.17.1-3.4-4.7-.47,0a7.09,7.09,0,0,1-2.52-.47l-1.28.73L108,84.84A6.5,6.5,0,0,1,106.91,83l-1.61-2.78,1.19-.69a7,7,0,0,1,1-2.81l-.59.34L103,70.29a14.57,14.57,0,0,0,15.63,23.78Z"/>
    <path class="a" d="M130.18,104.85l7.06,12.22.11-.06,1.07.37,2,3.5,1,1.16,4.14,7.17h.09l.64-.09.33.55,3.71,6.42-.81.51-.39.22.93,1.61-4.71,2.71-.93-1.61-1.22.7-4.06-7,.42-.51,0-.07-4.14-7.17L135,124l-2-3.5.21-1.11.11-.06-9.51-16.44a46.7,46.7,0,1,0,6.41,1.94Zm-16.73,58.56a14.92,14.92,0,1,1,14.92-14.92A14.92,14.92,0,0,1,113.46,163.41Z"/>
  </g>
  <g>
    <path class="a" d="M148.55,310.37H78.36a8.83,8.83,0,0,0-8.83,8.83V466.8a8.83,8.83,0,0,0,8.83,8.83h70.19a8.83,8.83,0,0,0,8.83-8.83V319.2A8.83,8.83,0,0,0,148.55,310.37ZM106.49,321h13.93a2.66,2.66,0,0,1,0,5.32H106.49a2.66,2.66,0,0,1,0-5.32Zm7,149.11a8.6,8.6,0,1,1,8.6-8.6A8.6,8.6,0,0,1,113.46,470.12Zm36.76-20.3H76.7V334.53h73.52Z"/>
    <rect class="a" x="82.79" y="340.02" width="16.13" height="15.69"/>
    <rect class="a" x="105.39" y="340.02" width="16.13" height="15.69"/>
    <rect class="a" x="127.99" y="340.02" width="16.13" height="15.69"/>
    <rect class="a" x="82.79" y="362.18" width="16.13" height="15.69"/>
    <rect class="a" x="105.39" y="362.18" width="16.13" height="15.69"/>
    <rect class="a" x="127.99" y="362.18" width="16.13" height="15.69"/>
    <rect class="a" x="82.79" y="384.33" width="16.13" height="15.69"/>
    <rect class="a" x="105.39" y="384.33" width="16.13" height="15.69"/>
    <rect class="a" x="127.99" y="384.33" width="16.13" height="15.69"/>
    <rect class="a" x="82.79" y="406.49" width="16.13" height="15.69"/>
    <rect class="a" x="105.39" y="406.49" width="16.13" height="15.69"/>
    <rect class="a" x="127.99" y="406.49" width="16.13" height="15.69"/>
    <rect class="a" x="82.79" y="428.65" width="16.13" height="15.69"/>
    <rect class="a" x="105.39" y="428.65" width="16.13" height="15.69"/>
    <rect class="a" x="127.99" y="428.65" width="16.13" height="15.69"/>
  </g>
  <g>
    <path class="a" d="M762.46,58.37H647.72A5.58,5.58,0,0,0,642.14,64v154.1a5.58,5.58,0,0,0,5.58,5.58H762.46a5.58,5.58,0,0,0,5.58-5.58V64A5.58,5.58,0,0,0,762.46,58.37Zm-57.37,161.1a3.18,3.18,0,1,1,3.18-3.18A3.18,3.18,0,0,1,705.09,219.47Zm51.66-10.4H651.53v-139H756.75Z"/>
    <rect class="a" x="659.79" y="122.26" width="40.53" height="33.28"/>
    <rect class="a" x="709.86" y="122.26" width="40.53" height="33.28"/>
    <rect class="a" x="659.79" y="165.08" width="40.53" height="33.28"/>
    <rect class="a" x="709.86" y="165.08" width="40.53" height="33.28"/>
    <polygon class="a" points="659.91 109.64 662.11 109.64 662.11 108.18 664.32 108.18 664.32 108.49 666.52 108.49 666.52 108.37 668.73 108.37 668.73 106.28 670.93 106.28 670.93 102.32 673.13 102.32 673.13 106.06 675.34 106.06 675.34 106.11 677.54 106.11 677.54 106.6 679.75 106.6 679.75 101.81 681.95 101.81 681.95 102.78 684.15 102.78 684.15 105.11 686.36 105.11 686.36 108.92 688.56 108.92 688.56 110.19 690.76 110.19 690.76 105.37 692.97 105.37 692.97 103.59 695.17 103.59 695.17 101.96 697.38 101.96 697.38 101.98 699.58 101.98 699.58 109.16 701.78 109.16 701.78 102.39 703.99 102.39 703.99 102.29 706.19 102.29 706.19 104.07 708.4 104.07 708.4 112.2 710.6 112.2 710.6 106.14 712.8 106.14 712.8 102.37 715.01 102.37 715.01 102.37 717.21 102.37 717.21 102.48 719.42 102.48 719.42 104.32 721.62 104.32 721.62 104.78 723.82 104.78 723.82 105.84 726.03 105.84 726.03 109.43 728.23 109.43 728.23 105.16 730.43 105.16 730.43 107.27 732.64 107.27 732.64 106.06 734.84 106.06 734.84 110.52 737.05 110.52 737.05 105.12 739.25 105.12 739.25 105.13 741.46 105.13 741.46 111.62 743.66 111.62 743.66 102.41 745.86 102.41 745.86 110.61 748.07 110.61 748.07 106.54 750.27 106.54 750.27 104.67 752.47 104.67 752.47 87.49 750.27 87.49 750.27 85.62 748.07 85.62 748.07 81.56 745.86 81.56 745.86 89.75 743.66 89.75 743.66 80.54 741.46 80.54 741.46 87.03 739.25 87.03 739.25 87.04 737.05 87.04 737.05 81.65 734.84 81.65 734.84 86.11 732.64 86.11 732.64 84.9 730.43 84.9 730.43 87 728.23 87 728.23 82.74 726.03 82.74 726.03 86.32 723.82 86.32 723.82 87.38 721.62 87.38 721.62 87.84 719.42 87.84 719.42 89.68 717.21 89.68 717.21 89.8 715.01 89.8 715.01 89.79 712.8 89.79 712.8 86.02 710.6 86.02 710.6 79.97 708.4 79.97 708.4 88.09 706.19 88.09 706.19 89.88 703.99 89.88 703.99 89.78 701.78 89.78 701.78 83 699.58 83 699.58 90.19 697.38 90.19 697.38 90.21 695.17 90.21 695.17 88.57 692.97 88.57 692.97 86.79 690.76 86.79 690.76 81.97 688.56 81.97 688.56 83.24 686.36 83.24 686.36 87.05 684.15 87.05 684.15 89.38 681.95 89.38 681.95 90.36 679.75 90.36 679.75 85.56 677.54 85.56 677.54 86.06 675.34 86.06 675.34 86.1 673.13 86.1 673.13 89.84 670.93 89.84 670.93 85.89 668.73 85.89 668.73 83.8 666.52 83.8 666.52 83.67 664.32 83.67 664.32 83.99 662.11 83.99 662.11 82.52 659.91 82.52 659.91 88.84 657.71 88.84 657.71 103.32 659.91 103.32 659.91 109.64"/>
  </g>
  <g>
    <path class="a" d="M764.21,310.37H646a3.38,3.38,0,0,0-3.38,3.38V472.25a3.38,3.38,0,0,0,3.38,3.38H764.21a3.38,3.38,0,0,0,3.38-3.38V313.74A3.38,3.38,0,0,0,764.21,310.37Zm-101.08,13.2h38.66v28.58H663.13Zm0,35.19h38.66v28.58H663.13Zm42.9,106a34,34,0,1,1,34-34A34,34,0,0,1,706,464.77Zm41-77.43H708.39V358.76h38.66Zm0-35.19H708.39V323.57h38.66Z"/>
    <path class="a" d="M725.3,423.44l-14.9-.4v-16.4h-8.76v16.42l-14.46.39a2.63,2.63,0,0,0-2.56,2.63v7.15a2.63,2.63,0,0,0,2.56,2.63l14.46.39v18.61h8.76v-18.6l14.9-.4a2.63,2.63,0,0,0,2.56-2.63v-7.15A2.63,2.63,0,0,0,725.3,423.44Z"/>
  </g>
  <g>
    <path class="a" d="M917.42,111.27A47.57,47.57,0,1,0,965,158.84,47.57,47.57,0,0,0,917.42,111.27Zm0,66.64a19.06,19.06,0,1,1,19.06-19.06A19.06,19.06,0,0,1,917.42,177.9Z"/>
    <circle class="a" cx="917.42" cy="158.84" r="1.34"/>
    <path class="a" d="M980.12,58.37H854.9a1,1,0,0,0-1,1V222.63a1,1,0,0,0,1,1H980.12a1,1,0,0,0,1-1V59.37A1,1,0,0,0,980.12,58.37Zm-31.4,8.78H965.4v5.68H948.73Zm-25.48,0h17.29v5.68H923.25Zm-62,18.77a1.36,1.36,0,0,1,1.36-1.36h.16V83a1.7,1.7,0,0,1,1.69-1.69h8.9A1.7,1.7,0,0,1,875.06,83v3h7.65a7.81,7.81,0,0,1,13.78,2.68l1.72.17a74.8,74.8,0,0,0,11.73-1.18c5.31-1,16.15-2.9,19.34-3.45h.07a32.73,32.73,0,0,1,6.23-.65,14.56,14.56,0,0,1,5.95,1c3.24,1.47,12.09,7.23,15.13,9.23l.07-.11,8.45,5.44,1.06-1.25,3.94,2.54,3.82,2.76-4.17,6.48-4.12-2.34-3.94-2.54.36-.71-8.54-5.49.12-.19c-2.85-1.88-11.56-7.55-14.43-8.85a9.35,9.35,0,0,0-3.63-.55,27.72,27.72,0,0,0-5.22.54l-.16,0c-1.38.24-13.66,2.34-19.28,3.44a79.54,79.54,0,0,1-12.88,1.28H898l-2-.2a7.81,7.81,0,0,1-14.32-.57H875A1.7,1.7,0,0,1,873.36,95h-8.9a1.7,1.7,0,0,1-1.69-1.69V91.81h-.16a1.36,1.36,0,0,1-1.36-1.36Zm7.52,133a6.9,6.9,0,1,1,3.87-6.2A6.86,6.86,0,0,1,868.78,218.91Zm-4.92-60.07a53.56,53.56,0,1,1,53.56,53.56A53.56,53.56,0,0,1,863.86,158.84Zm91.42,60.79a5.64,5.64,0,1,1,5.64-5.64A5.64,5.64,0,0,1,955.28,219.63Zm22.11,0H966.11V203.79h11.28Z"/>
  </g>
  <path class="a" d="M978.12,310.37H856.91a.45.45,0,0,0-.45.45V472.63a.45.45,0,0,0,.45.45H893v2.54h4.85v-2.54h17.28v2.54h4.85v-2.54h17.28v2.54h4.85v-2.54h36.05a.45.45,0,0,0,.45-.45V310.82A.45.45,0,0,0,978.12,310.37ZM880.49,323a6.85,6.85,0,1,1-6.85,6.85A6.85,6.85,0,0,1,880.49,323Zm0,21.26a6.85,6.85,0,1,1-6.85,6.85A6.85,6.85,0,0,1,880.49,344.22Zm0,21.26a6.85,6.85,0,1,1-6.85,6.85A6.85,6.85,0,0,1,880.49,365.48Zm8.31,71.4H882V447.6a1.44,1.44,0,0,1-1.44,1.44h-.13A1.44,1.44,0,0,1,879,447.6V436.88h-6.81v-10H879V416.2a1.44,1.44,0,0,1,1.44-1.44h.13A1.44,1.44,0,0,1,882,416.2v10.72h6.8ZM903.75,323a6.85,6.85,0,1,1-6.85,6.85A6.85,6.85,0,0,1,903.75,323Zm0,21.26a6.85,6.85,0,1,1-6.85,6.85A6.85,6.85,0,0,1,903.75,344.22Zm0,21.26a6.85,6.85,0,1,1-6.85,6.85A6.85,6.85,0,0,1,903.75,365.48Zm-6.85,28.11a6.85,6.85,0,1,1,6.85,6.85A6.85,6.85,0,0,1,896.9,393.58Zm38.77,55.78a1.55,1.55,0,0,1-1.55,1.55H922.56v7.34H911.82v-7.34H900.26a1.55,1.55,0,0,1-1.55-1.55v-.14a1.55,1.55,0,0,1,1.55-1.55h11.56v-7.34h10.74v7.34h11.56a1.55,1.55,0,0,1,1.55,1.55Zm-4.4-48.93a6.85,6.85,0,1,1,6.85-6.85A6.85,6.85,0,0,1,931.27,400.43Zm0-21.26a6.85,6.85,0,1,1,6.85-6.85A6.85,6.85,0,0,1,931.27,379.17Zm0-21.26a6.85,6.85,0,1,1,6.85-6.85A6.85,6.85,0,0,1,931.27,357.92Zm0-21.26a6.85,6.85,0,1,1,6.85-6.85A6.85,6.85,0,0,1,931.27,336.66ZM954.53,323a6.85,6.85,0,1,1-6.85,6.85A6.85,6.85,0,0,1,954.53,323Zm0,21.26a6.85,6.85,0,1,1-6.85,6.85A6.85,6.85,0,0,1,954.53,344.22Zm0,21.26a6.85,6.85,0,1,1-6.85,6.85A6.85,6.85,0,0,1,954.53,365.48Zm8.31,71.41H956v10.73A1.44,1.44,0,0,1,954.6,449h-.13a1.44,1.44,0,0,1-1.44-1.44V436.88h-6.81v-10H953V416.19a1.44,1.44,0,0,1,1.44-1.44h.13a1.44,1.44,0,0,1,1.44,1.44v10.72h6.81Z"/>
</svg>
