<svg xmlns="http://www.w3.org/2000/svg" width="155.96" height="90" viewBox="0 0 155.96 90">
  <title>Blackspike_Macbook Pro</title>
  <path d="M150.29,0H5.67C.8,0-.69,3.41.28,3.41H19.51a5.42,5.42,0,0,0-3.8,5.17v76A5.41,5.41,0,0,0,21.12,90H68.83a1.85,1.85,0,0,1,1.83-1.56H85.3A1.85,1.85,0,0,1,87.13,90h47.71a5.41,5.41,0,0,0,5.41-5.41v-76a5.42,5.42,0,0,0-3.8-5.17h19.23C156.65,3.41,155.16,0,150.29,0ZM98.06,85.35a1.5,1.5,0,0,1-1.5,1.5H59.4a1.5,1.5,0,0,1-1.5-1.5V59a1.5,1.5,0,0,1,1.5-1.5H96.56a1.5,1.5,0,0,1,1.5,1.5Zm35-33.7A2.07,2.07,0,0,1,131,53.72H25a2.07,2.07,0,0,1-2.07-2.07V11A2.07,2.07,0,0,1,25,8.95H131A2.07,2.07,0,0,1,133.07,11ZM122.87,5.5a1.41,1.41,0,0,1-1.41,1.41h-87A1.41,1.41,0,0,1,33.09,5.5V3.41h89.78Z"/>
</svg>
