<svg xmlns="http://www.w3.org/2000/svg" width="68.07" height="90" viewBox="0 0 68.07 90">
  <title>Blackspike_AV Mixer</title>
  <g>
    <path d="M66.23,0H1.84A1.84,1.84,0,0,0,0,1.84V88.16A1.84,1.84,0,0,0,1.84,90H66.23a1.84,1.84,0,0,0,1.84-1.84V1.84A1.84,1.84,0,0,0,66.23,0Zm-55,7.19H32.24V22.76H11.18Zm0,19.16H32.24V41.92H11.18ZM34.54,84.09A18.54,18.54,0,1,1,53.08,65.55,18.54,18.54,0,0,1,34.54,84.09ZM56.89,41.92H35.83V26.35H56.89Zm0-19.16H35.83V7.19H56.89Z"/>
    <path d="M45,61.58l-8.11-.22V52.43H32.16v8.94l-7.87.21A1.43,1.43,0,0,0,22.89,63V66.9a1.43,1.43,0,0,0,1.39,1.43l7.87.21V78.68h4.77V68.55L45,68.33a1.43,1.43,0,0,0,1.39-1.43V63A1.43,1.43,0,0,0,45,61.58Z"/>
  </g>
</svg>
