<svg xmlns="http://www.w3.org/2000/svg" width="47.84" height="90" viewBox="0 0 47.84 90">
  <title>Blackspike_iPhone</title>
  <g>
    <path d="M43,0H4.81A4.81,4.81,0,0,0,0,4.81V85.19A4.81,4.81,0,0,0,4.81,90H43a4.81,4.81,0,0,0,4.81-4.81V4.81A4.81,4.81,0,0,0,43,0ZM20.13,5.8h7.58a1.45,1.45,0,0,1,0,2.9H20.13a1.45,1.45,0,0,1,0-2.9ZM23.92,87a4.68,4.68,0,1,1,4.68-4.68A4.68,4.68,0,0,1,23.92,87Zm20-11.05H3.9V13.16h40Z"/>
    <rect x="7.22" y="16.15" width="8.78" height="8.55"/>
    <rect x="19.53" y="16.15" width="8.78" height="8.55"/>
    <rect x="31.84" y="16.15" width="8.78" height="8.55"/>
    <rect x="7.22" y="28.21" width="8.78" height="8.55"/>
    <rect x="19.53" y="28.21" width="8.78" height="8.55"/>
    <rect x="31.84" y="28.21" width="8.78" height="8.55"/>
    <rect x="7.22" y="40.28" width="8.78" height="8.55"/>
    <rect x="19.53" y="40.28" width="8.78" height="8.55"/>
    <rect x="31.84" y="40.28" width="8.78" height="8.55"/>
    <rect x="7.22" y="52.35" width="8.78" height="8.55"/>
    <rect x="19.53" y="52.35" width="8.78" height="8.55"/>
    <rect x="31.84" y="52.35" width="8.78" height="8.55"/>
    <rect x="7.22" y="64.41" width="8.78" height="8.55"/>
    <rect x="19.53" y="64.41" width="8.78" height="8.55"/>
    <rect x="31.84" y="64.41" width="8.78" height="8.55"/>
  </g>
</svg>
