<svg xmlns="http://www.w3.org/2000/svg" width="68.56" height="90" viewBox="0 0 68.56 90">
  <title>Blackspike_iPad</title>
  <g>
    <path d="M65.52,0H3A3,3,0,0,0,0,3V87a3,3,0,0,0,3,3H65.52a3,3,0,0,0,3-3V3A3,3,0,0,0,65.52,0ZM34.28,87.73A1.73,1.73,0,1,1,36,86,1.73,1.73,0,0,1,34.28,87.73Zm28.13-5.67H5.11V6.37h57.3Z"/>
    <rect x="9.61" y="34.79" width="22.07" height="18.12"/>
    <rect x="36.88" y="34.79" width="22.07" height="18.12"/>
    <rect x="9.61" y="58.11" width="22.07" height="18.12"/>
    <rect x="36.88" y="58.11" width="22.07" height="18.12"/>
    <polygon points="9.68 27.92 10.88 27.92 10.88 27.12 12.08 27.12 12.08 27.29 13.28 27.29 13.28 27.23 14.48 27.23 14.48 26.09 15.68 26.09 15.68 23.94 16.88 23.94 16.88 25.97 18.08 25.97 18.08 26 19.28 26 19.28 26.27 20.48 26.27 20.48 23.65 21.68 23.65 21.68 24.19 22.88 24.19 22.88 25.45 24.08 25.45 24.08 27.53 25.28 27.53 25.28 28.22 26.48 28.22 26.48 25.6 27.68 25.6 27.68 24.63 28.88 24.63 28.88 23.74 30.08 23.74 30.08 23.75 31.28 23.75 31.28 27.66 32.48 27.66 32.48 23.97 33.68 23.97 33.68 23.92 34.88 23.92 34.88 24.89 36.08 24.89 36.08 29.31 37.28 29.31 37.28 26.02 38.48 26.02 38.48 23.96 39.68 23.96 39.68 23.96 40.88 23.96 40.88 24.02 42.08 24.02 42.08 25.02 43.28 25.02 43.28 25.28 44.48 25.28 44.48 25.85 45.68 25.85 45.68 27.8 46.88 27.8 46.88 25.48 48.08 25.48 48.08 26.63 49.28 26.63 49.28 25.97 50.48 25.97 50.48 28.4 51.68 28.4 51.68 25.46 52.88 25.46 52.88 25.47 54.08 25.47 54.08 29 55.28 29 55.28 23.98 56.48 23.98 56.48 28.45 57.69 28.45 57.69 26.23 58.88 26.23 58.88 25.22 60.09 25.22 60.09 15.86 58.88 15.86 58.88 14.84 57.69 14.84 57.69 12.63 56.48 12.63 56.48 17.09 55.28 17.09 55.28 12.07 54.08 12.07 54.08 15.61 52.88 15.61 52.88 15.61 51.68 15.61 51.68 12.68 50.48 12.68 50.48 15.11 49.28 15.11 49.28 14.45 48.08 14.45 48.08 15.59 46.88 15.59 46.88 13.27 45.68 13.27 45.68 15.22 44.48 15.22 44.48 15.8 43.28 15.8 43.28 16.05 42.08 16.05 42.08 17.05 40.88 17.05 40.88 17.11 39.68 17.11 39.68 17.11 38.48 17.11 38.48 15.06 37.28 15.06 37.28 11.76 36.08 11.76 36.08 16.18 34.88 16.18 34.88 17.16 33.68 17.16 33.68 17.1 32.48 17.1 32.48 13.41 31.28 13.41 31.28 17.33 30.08 17.33 30.08 17.34 28.88 17.34 28.88 16.45 27.68 16.45 27.68 15.48 26.48 15.48 26.48 12.85 25.28 12.85 25.28 13.54 24.08 13.54 24.08 15.62 22.88 15.62 22.88 16.89 21.68 16.89 21.68 17.42 20.48 17.42 20.48 14.81 19.28 14.81 19.28 15.08 18.08 15.08 18.08 15.1 16.88 15.1 16.88 17.14 15.68 17.14 15.68 14.98 14.48 14.98 14.48 13.85 13.28 13.85 13.28 13.78 12.08 13.78 12.08 13.95 10.88 13.95 10.88 13.15 9.68 13.15 9.68 16.59 8.47 16.59 8.47 24.48 9.68 24.48 9.68 27.92"/>
  </g>
</svg>
