<svg xmlns="http://www.w3.org/2000/svg" width="66.5" height="90" viewBox="0 0 66.5 90">
  <title>Blackspike_Mixer</title>
  <path d="M66.26,0H.25A.25.25,0,0,0,0,.25V88.37a.25.25,0,0,0,.25.25H19.88V90h2.64V88.61h9.41V90h2.64V88.61H44V90h2.64V88.61H66.26a.25.25,0,0,0,.25-.25V.25A.25.25,0,0,0,66.26,0ZM13.09,6.86a3.73,3.73,0,1,1-3.73,3.73A3.73,3.73,0,0,1,13.09,6.86Zm0,11.58a3.73,3.73,0,1,1-3.73,3.73A3.73,3.73,0,0,1,13.09,18.44Zm0,11.58a3.73,3.73,0,1,1-3.73,3.73A3.73,3.73,0,0,1,13.09,30ZM17.62,68.9H13.91v5.84a.78.78,0,0,1-.78.78h-.07a.78.78,0,0,1-.78-.78V68.9H8.57V63.47h3.71V57.63a.78.78,0,0,1,.78-.78h.07a.78.78,0,0,1,.78.78v5.84h3.71Zm8.14-62A3.73,3.73,0,1,1,22,10.59,3.73,3.73,0,0,1,25.76,6.86Zm0,11.58A3.73,3.73,0,1,1,22,22.16,3.73,3.73,0,0,1,25.76,18.44Zm0,11.58A3.73,3.73,0,1,1,22,33.74,3.73,3.73,0,0,1,25.76,30ZM22,45.32A3.73,3.73,0,1,1,25.76,49,3.73,3.73,0,0,1,22,45.32ZM43.14,75.7a.84.84,0,0,1-.84.84H36v4H30.15v-4H23.86A.84.84,0,0,1,23,75.7v-.08a.84.84,0,0,1,.84-.84h6.29v-4H36v4h6.3a.84.84,0,0,1,.84.84ZM40.75,49a3.73,3.73,0,1,1,3.73-3.73A3.73,3.73,0,0,1,40.75,49Zm0-11.58a3.73,3.73,0,1,1,3.73-3.73A3.73,3.73,0,0,1,40.75,37.47Zm0-11.58a3.73,3.73,0,1,1,3.73-3.73A3.73,3.73,0,0,1,40.75,25.89Zm0-11.58a3.73,3.73,0,1,1,3.73-3.73A3.73,3.73,0,0,1,40.75,14.32ZM53.41,6.86a3.73,3.73,0,1,1-3.73,3.73A3.73,3.73,0,0,1,53.41,6.86Zm0,11.58a3.73,3.73,0,1,1-3.73,3.73A3.73,3.73,0,0,1,53.41,18.44Zm0,11.58a3.73,3.73,0,1,1-3.73,3.73A3.73,3.73,0,0,1,53.41,30ZM57.94,68.9H54.23v5.84a.78.78,0,0,1-.78.78h-.07a.78.78,0,0,1-.78-.78V68.9H48.89V63.47H52.6V57.63a.78.78,0,0,1,.78-.78h.07a.78.78,0,0,1,.78.78v5.84h3.71Z"/>
</svg>
