<svg xmlns="http://www.w3.org/2000/svg" width="69.28" height="90" viewBox="0 0 69.28 90">
  <title>Blackspike_Turntable</title>
  <g>
    <path d="M34.59,28.81A25.91,25.91,0,1,0,60.5,54.71,25.91,25.91,0,0,0,34.59,28.81Zm0,36.29A10.38,10.38,0,1,1,45,54.71,10.38,10.38,0,0,1,34.59,65.1Z"/>
    <circle cx="34.59" cy="54.71" r="0.73"/>
    <path d="M68.74,0H.55A.55.55,0,0,0,0,.55V89.45A.55.55,0,0,0,.55,90H68.74a.55.55,0,0,0,.55-.55V.55A.55.55,0,0,0,68.74,0ZM51.64,4.78h9.08v3.1H51.64Zm-13.88,0h9.42v3.1H37.76ZM4,15a.74.74,0,0,1,.74-.74h.09v-.83a.92.92,0,0,1,.92-.92H10.6a.92.92,0,0,1,.92.92V15h4.16a4.25,4.25,0,0,1,7.5,1.46l.94.09A40.73,40.73,0,0,0,30.52,16c2.89-.57,8.79-1.58,10.53-1.88h0a17.83,17.83,0,0,1,3.39-.36,7.93,7.93,0,0,1,3.24.57c1.76.8,6.58,3.94,8.24,5l0-.06,4.6,3,.58-.68,2.15,1.38,2.08,1.5L63.13,28l-2.24-1.28L58.74,25.3l.2-.39-4.65-3,.07-.1c-1.55-1-6.3-4.11-7.86-4.82a5.09,5.09,0,0,0-2-.3,15.09,15.09,0,0,0-2.84.3l-.09,0c-.75.13-7.44,1.27-10.5,1.87a43.32,43.32,0,0,1-7,.7H24l-1.08-.11a4.25,4.25,0,0,1-7.8-.31h-3.6a.92.92,0,0,1-.91.79H5.75A.92.92,0,0,1,4.83,19v-.81H4.75A.74.74,0,0,1,4,17.47ZM8.1,87.43a3.76,3.76,0,1,1,2.11-3.37A3.73,3.73,0,0,1,8.1,87.43ZM5.42,54.71A29.17,29.17,0,1,1,34.59,83.88,29.17,29.17,0,0,1,5.42,54.71ZM55.21,87.82a3.07,3.07,0,1,1,3.07-3.07A3.07,3.07,0,0,1,55.21,87.82Zm12,0H61.11V79.2h6.15Z"/>
  </g>
</svg>
